<svg id="color" enable-background="new 0 0 24 24" height="512" viewBox="0 0 24 24" width="512" xmlns="http://www.w3.org/2000/svg"><path d="m12 24c-6.617 0-12-5.383-12-12s5.383-12 12-12 12 5.383 12 12-5.383 12-12 12z" fill="#2196f3"/><path d="m12 0c-6.617 0-12 5.383-12 12 0 6.617 5.383 12 12 12z" fill="#1d83d4"/><g fill="#fafafa"><path d="m7.25 16c-.256 0-.512-.098-.707-.293l-3-3c-.391-.391-.391-1.023 0-1.414l3-3c.391-.391 1.023-.391 1.414 0s.391 1.023 0 1.414l-2.293 2.293 2.293 2.293c.391.391.391 1.023 0 1.414-.195.195-.451.293-.707.293z"/><path d="m10.468 17.209c-.53-.156-.833-.712-.677-1.242l2.5-8.5c.157-.53.713-.833 1.242-.677.53.156.833.712.677 1.242l-2.5 8.5c-.157.531-.714.834-1.242.677z"/><path d="m16.75 16c-.256 0-.512-.098-.707-.293-.391-.391-.391-1.023 0-1.414l2.293-2.293-2.293-2.293c-.391-.391-.391-1.023 0-1.414s1.023-.391 1.414 0l3 3c.391.391.391 1.023 0 1.414l-3 3c-.195.195-.451.293-.707.293z"/></g><path d="m5.664 12h-2.414c0 .256.098.512.293.707l3 3c.195.195.451.293.707.293s.512-.098.707-.293c.391-.391.391-1.023 0-1.414z" fill="#dadada"/><path d="m13.042 12h-2.085l-1.167 3.968c-.156.53.147 1.086.677 1.242.094.028.189.041.283.041.431 0 .831-.282.959-.718z" fill="#dadada"/><path d="m20.75 12h-2.414l-2.293 2.293c-.391.391-.391 1.023 0 1.414.195.195.451.293.707.293s.512-.098.707-.293l3-3c.195-.195.293-.451.293-.707z" fill="#dadada"/></svg>